<mxfile>
    <diagram id="Q3fDlmlgJLWj4L4Ehi6O" name="REST">
        <mxGraphModel dx="885" dy="642" grid="1" gridSize="10" guides="1" tooltips="1" connect="1" arrows="1" fold="1" page="1" pageScale="1" pageWidth="850" pageHeight="1100" math="0" shadow="0">
            <root>
                <mxCell id="0"/>
                <mxCell id="1" parent="0"/>
                <mxCell id="21" style="edgeStyle=entityRelationEdgeStyle;rounded=0;orthogonalLoop=1;jettySize=auto;html=1;exitX=1;exitY=0.25;exitDx=0;exitDy=0;dashed=1;startArrow=none;startFill=0;endArrow=none;endFill=0;strokeColor=#505050;fontColor=#505050;" edge="1" parent="1" source="2" target="16">
                    <mxGeometry relative="1" as="geometry"/>
                </mxCell>
                <mxCell id="2" value="Cliente&lt;br&gt;WEB" style="rounded=1;whiteSpace=wrap;html=1;fillColor=#f5f5f5;strokeColor=#666666;arcSize=0;fontColor=#333333;" parent="1" vertex="1">
                    <mxGeometry x="200" y="310" width="70" height="100" as="geometry"/>
                </mxCell>
                <mxCell id="10" style="edgeStyle=none;rounded=0;orthogonalLoop=1;jettySize=auto;html=1;startArrow=classic;startFill=1;strokeColor=#505050;" edge="1" parent="1" target="9">
                    <mxGeometry relative="1" as="geometry">
                        <mxPoint x="650" y="359" as="sourcePoint"/>
                    </mxGeometry>
                </mxCell>
                <mxCell id="9" value="Base&lt;br&gt;de datos" style="shadow=0;dashed=0;html=1;strokeColor=none;fillColor=#505050;labelPosition=center;verticalLabelPosition=bottom;verticalAlign=top;outlineConnect=0;align=center;shape=mxgraph.office.databases.database_mini_2;" vertex="1" parent="1">
                    <mxGeometry x="690" y="338" width="35" height="42" as="geometry"/>
                </mxCell>
                <mxCell id="22" style="edgeStyle=entityRelationEdgeStyle;rounded=0;orthogonalLoop=1;jettySize=auto;html=1;dashed=1;startArrow=none;startFill=0;endArrow=classic;endFill=1;strokeColor=#505050;fontColor=#505050;" edge="1" parent="1" source="16">
                    <mxGeometry relative="1" as="geometry">
                        <mxPoint x="490" y="350" as="targetPoint"/>
                    </mxGeometry>
                </mxCell>
                <mxCell id="16" value="" style="dashed=0;outlineConnect=0;html=1;align=center;labelPosition=center;verticalLabelPosition=bottom;verticalAlign=top;shape=mxgraph.weblogos.json_2;strokeColor=#505050;fontColor=#505050;" vertex="1" parent="1">
                    <mxGeometry x="340" y="319" width="60" height="20" as="geometry"/>
                </mxCell>
                <mxCell id="23" style="edgeStyle=entityRelationEdgeStyle;rounded=0;orthogonalLoop=1;jettySize=auto;html=1;exitX=1;exitY=0.75;exitDx=0;exitDy=0;dashed=1;startArrow=classic;startFill=1;endArrow=none;endFill=0;strokeColor=#505050;fontColor=#505050;" edge="1" parent="1" target="25" source="2">
                    <mxGeometry relative="1" as="geometry">
                        <mxPoint x="270" y="476" as="sourcePoint"/>
                    </mxGeometry>
                </mxCell>
                <mxCell id="24" style="edgeStyle=entityRelationEdgeStyle;rounded=0;orthogonalLoop=1;jettySize=auto;html=1;dashed=1;startArrow=none;startFill=0;endArrow=none;endFill=0;strokeColor=#505050;fontColor=#505050;" edge="1" parent="1" source="25">
                    <mxGeometry relative="1" as="geometry">
                        <mxPoint x="480" y="370" as="targetPoint"/>
                    </mxGeometry>
                </mxCell>
                <mxCell id="25" value="" style="dashed=0;outlineConnect=0;html=1;align=center;labelPosition=center;verticalLabelPosition=bottom;verticalAlign=top;shape=mxgraph.weblogos.json_2;strokeColor=#505050;fontColor=#505050;" vertex="1" parent="1">
                    <mxGeometry x="340" y="381" width="60" height="20" as="geometry"/>
                </mxCell>
                <mxCell id="29" style="edgeStyle=entityRelationEdgeStyle;rounded=0;orthogonalLoop=1;jettySize=auto;html=1;entryX=0;entryY=0.5;entryDx=0;entryDy=0;dashed=1;startArrow=classic;startFill=1;endArrow=classic;endFill=1;strokeColor=#505050;fontColor=#505050;" edge="1" parent="1" source="26" target="27">
                    <mxGeometry relative="1" as="geometry"/>
                </mxCell>
                <mxCell id="26" value="" style="pointerEvents=1;shadow=0;dashed=0;html=1;strokeColor=none;fillColor=#505050;labelPosition=center;verticalLabelPosition=bottom;outlineConnect=0;verticalAlign=top;align=center;shape=mxgraph.office.clouds.cloud;fontColor=#505050;" vertex="1" parent="1">
                    <mxGeometry x="490" y="339" width="60" height="40" as="geometry"/>
                </mxCell>
                <mxCell id="27" value="Servicio&lt;br&gt;Web" style="rounded=0;whiteSpace=wrap;html=1;strokeColor=#505050;fontColor=#505050;" vertex="1" parent="1">
                    <mxGeometry x="590" y="329" width="60" height="60" as="geometry"/>
                </mxCell>
            </root>
        </mxGraphModel>
    </diagram>
    <diagram id="Lj8jgYu7ykELcJrspyyh" name="Docker">
        <mxGraphModel dx="607" dy="440" grid="1" gridSize="10" guides="1" tooltips="1" connect="1" arrows="1" fold="1" page="1" pageScale="1" pageWidth="850" pageHeight="1100" math="0" shadow="0">
            <root>
                <mxCell id="2t3CA5t8HiVBNUOTpBNW-0"/>
                <mxCell id="2t3CA5t8HiVBNUOTpBNW-1" parent="2t3CA5t8HiVBNUOTpBNW-0"/>
                <mxCell id="2t3CA5t8HiVBNUOTpBNW-2" value="Computadora" style="rounded=0;whiteSpace=wrap;html=1;strokeColor=#666666;fontColor=#333333;verticalAlign=bottom;fillColor=#f5f5f5;" vertex="1" parent="2t3CA5t8HiVBNUOTpBNW-1">
                    <mxGeometry x="360" y="360" width="350" height="180" as="geometry"/>
                </mxCell>
                <mxCell id="2t3CA5t8HiVBNUOTpBNW-3" value="Kernel" style="rounded=0;whiteSpace=wrap;html=1;strokeColor=#82b366;verticalAlign=bottom;fillColor=#d5e8d4;" vertex="1" parent="2t3CA5t8HiVBNUOTpBNW-1">
                    <mxGeometry x="370" y="370" width="330" height="150" as="geometry"/>
                </mxCell>
                <mxCell id="2t3CA5t8HiVBNUOTpBNW-13" value="Contenedor" style="rounded=0;whiteSpace=wrap;html=1;strokeColor=#505050;fontColor=#505050;verticalAlign=top;" vertex="1" parent="2t3CA5t8HiVBNUOTpBNW-1">
                    <mxGeometry x="540" y="380" width="150" height="110" as="geometry"/>
                </mxCell>
                <mxCell id="2t3CA5t8HiVBNUOTpBNW-14" value="Proceso" style="rounded=1;whiteSpace=wrap;html=1;strokeColor=#6c8ebf;fillColor=#dae8fc;" vertex="1" parent="2t3CA5t8HiVBNUOTpBNW-1">
                    <mxGeometry x="550" y="410" width="60" height="30" as="geometry"/>
                </mxCell>
                <mxCell id="2t3CA5t8HiVBNUOTpBNW-15" value="Proceso" style="rounded=1;whiteSpace=wrap;html=1;strokeColor=#82b366;fillColor=#d5e8d4;" vertex="1" parent="2t3CA5t8HiVBNUOTpBNW-1">
                    <mxGeometry x="620" y="410" width="60" height="30" as="geometry"/>
                </mxCell>
                <mxCell id="2t3CA5t8HiVBNUOTpBNW-16" value="Proceso" style="rounded=1;whiteSpace=wrap;html=1;strokeColor=#666666;fillColor=#f5f5f5;fontColor=#333333;" vertex="1" parent="2t3CA5t8HiVBNUOTpBNW-1">
                    <mxGeometry x="550" y="450" width="60" height="30" as="geometry"/>
                </mxCell>
                <mxCell id="2t3CA5t8HiVBNUOTpBNW-17" value="Proceso" style="rounded=1;whiteSpace=wrap;html=1;strokeColor=#d6b656;fillColor=#fff2cc;" vertex="1" parent="2t3CA5t8HiVBNUOTpBNW-1">
                    <mxGeometry x="620" y="450" width="60" height="30" as="geometry"/>
                </mxCell>
                <mxCell id="2t3CA5t8HiVBNUOTpBNW-6" value="Contenedor" style="rounded=0;whiteSpace=wrap;html=1;strokeColor=#505050;fontColor=#505050;verticalAlign=top;" vertex="1" parent="2t3CA5t8HiVBNUOTpBNW-1">
                    <mxGeometry x="380" y="380" width="150" height="110" as="geometry"/>
                </mxCell>
                <mxCell id="2t3CA5t8HiVBNUOTpBNW-7" value="Proceso" style="rounded=1;whiteSpace=wrap;html=1;strokeColor=#666666;fillColor=#f5f5f5;fontColor=#333333;" vertex="1" parent="2t3CA5t8HiVBNUOTpBNW-1">
                    <mxGeometry x="390" y="410" width="60" height="30" as="geometry"/>
                </mxCell>
                <mxCell id="2t3CA5t8HiVBNUOTpBNW-8" value="Proceso" style="rounded=1;whiteSpace=wrap;html=1;strokeColor=#d6b656;fillColor=#fff2cc;" vertex="1" parent="2t3CA5t8HiVBNUOTpBNW-1">
                    <mxGeometry x="460" y="410" width="60" height="30" as="geometry"/>
                </mxCell>
                <mxCell id="2t3CA5t8HiVBNUOTpBNW-9" value="Proceso" style="rounded=1;whiteSpace=wrap;html=1;strokeColor=#6c8ebf;fillColor=#dae8fc;" vertex="1" parent="2t3CA5t8HiVBNUOTpBNW-1">
                    <mxGeometry x="390" y="450" width="60" height="30" as="geometry"/>
                </mxCell>
                <mxCell id="2t3CA5t8HiVBNUOTpBNW-10" value="Proceso" style="rounded=1;whiteSpace=wrap;html=1;strokeColor=#82b366;fillColor=#d5e8d4;" vertex="1" parent="2t3CA5t8HiVBNUOTpBNW-1">
                    <mxGeometry x="460" y="450" width="60" height="30" as="geometry"/>
                </mxCell>
            </root>
        </mxGraphModel>
    </diagram>
</mxfile>
